<?xml version="1.0" standalone="no"?>
<!DOCTYPE svg PUBLIC "-//W3C//DTD SVG 20010904//EN"
 "http://www.w3.org/TR/2001/REC-SVG-20010904/DTD/svg10.dtd">
<svg version="1.0" xmlns="http://www.w3.org/2000/svg"
 width="1024.000000pt" height="1024.000000pt" viewBox="0 0 1024.000000 1024.000000"
 preserveAspectRatio="xMidYMid meet">

<g transform="translate(0.000000,1024.000000) scale(0.100000,-0.100000)"
fill="#000000" stroke="none">
<path d="M0 5120 l0 -5120 5120 0 5120 0 0 5120 0 5120 -5120 0 -5120 0 0
-5120z m6320 3406 c69 -15 165 -41 214 -57 96 -32 229 -105 272 -150 l25 -27
-63 -60 c-181 -171 -216 -203 -222 -194 -23 38 -215 115 -343 137 -125 22
-2060 22 -2203 1 -167 -26 -336 -100 -468 -206 -119 -96 -245 -283 -291 -433
-39 -128 -43 -237 -39 -1207 4 -920 4 -925 26 -1004 31 -110 59 -167 141 -289
96 -142 102 -169 71 -363 -12 -80 -20 -161 -17 -181 8 -45 33 -73 66 -73 14 0
139 53 276 118 l250 117 1075 5 c1065 5 1076 6 1152 27 357 101 609 345 689
666 26 101 38 305 32 513 l-5 160 162 172 c144 154 185 192 204 192 11 0 6
-843 -4 -928 -47 -376 -236 -701 -524 -906 -165 -118 -344 -195 -536 -232 -87
-17 -185 -19 -1145 -24 l-1050 -5 -65 -31 c-98 -46 -569 -240 -615 -253 -118
-32 -215 6 -268 104 -21 39 -22 51 -22 371 l0 330 -63 96 c-95 144 -163 329
-182 499 -14 118 -13 1868 1 1984 12 102 28 170 70 303 60 189 158 340 322
498 187 180 395 293 637 345 80 17 152 18 1200 16 l1115 -3 125 -28z m745
-436 c32 -35 16 -106 -69 -305 -43 -99 -123 -274 -179 -389 -120 -249 -130
-294 -79 -346 l30 -30 289 0 289 0 31 -32 c38 -40 49 -78 32 -110 -7 -12 -114
-131 -238 -263 -645 -685 -948 -1005 -1084 -1142 -147 -149 -152 -153 -193
-153 -34 0 -45 5 -59 26 -34 53 -31 92 19 220 26 66 65 157 86 204 22 47 40
89 40 94 0 4 27 62 59 129 83 171 180 393 194 444 10 38 9 46 -9 70 -27 35
-46 39 -254 52 -114 6 -202 17 -254 30 -44 12 -81 22 -83 24 -1 2 -9 37 -17
77 l-14 74 73 86 c88 103 1087 1100 1102 1100 6 0 44 30 84 66 104 94 166 116
204 74z m-1835 -521 c176 -33 328 -109 490 -248 36 -30 67 -56 69 -58 9 -6
-49 -71 -144 -158 l-105 -97 -77 63 c-102 82 -198 127 -313 146 -81 14 -99 14
-182 0 -433 -73 -650 -551 -422 -929 145 -241 415 -349 680 -272 152 43 263
126 349 258 l49 76 91 2 c199 6 265 -8 265 -55 0 -24 -69 -157 -126 -243 -117
-177 -323 -325 -534 -384 -94 -27 -313 -38 -418 -21 -64 10 -82 9 -155 -10
-199 -51 -393 -148 -523 -262 -88 -78 -224 -283 -224 -339 0 -22 -89 -51 -160
-52 -108 0 -153 51 -131 149 23 102 73 240 109 300 80 134 291 304 520 419
l73 37 -74 79 c-211 227 -295 567 -217 878 85 336 342 601 675 697 154 44 285
51 435 24z m-2760 -4181 l0 -133 -356 -455 -356 -455 366 -3 366 -2 0 -140 0
-140 -550 0 -550 0 0 124 0 123 282 374 c154 206 312 413 350 461 l68 88 -342
2 -343 3 -3 143 -3 142 536 0 535 0 0 -132z m3195 108 c148 -41 244 -115 300
-229 96 -197 57 -461 -88 -594 -110 -100 -217 -132 -464 -140 l-173 -6 0 -234
0 -234 -155 3 -155 3 -3 728 -2 729 340 -5 c280 -3 351 -7 400 -21z m2915
-201 l0 -144 128 -3 127 -3 3 -94 c2 -62 -1 -98 -9 -108 -10 -11 -37 -13 -131
-11 l-118 3 0 -265 c0 -146 4 -280 10 -299 5 -19 19 -45 32 -58 19 -21 30 -23
114 -23 l93 0 7 -36 c7 -37 1 -181 -8 -189 -3 -3 -70 -6 -149 -8 -118 -1 -154
2 -197 17 -95 33 -138 86 -167 208 -11 48 -15 133 -15 358 l0 295 -76 -3
c-128 -6 -124 -10 -124 113 l0 105 100 0 100 0 0 138 c0 76 3 142 7 145 3 4
66 7 140 7 l133 0 0 -145z m-1791 -144 c111 -44 201 -129 264 -248 48 -93 69
-179 70 -293 1 -175 -52 -308 -169 -427 -137 -140 -327 -185 -526 -123 -157
49 -298 204 -342 376 -21 81 -21 260 -1 339 46 176 174 326 325 381 99 36 281
33 379 -5z m-3551 14 c173 -41 271 -151 302 -337 5 -35 10 -222 10 -415 l0
-353 -135 0 c-101 0 -135 3 -136 13 -1 6 -1 32 1 57 l2 44 -40 -36 c-76 -69
-160 -98 -283 -98 -163 0 -284 70 -343 199 -30 67 -30 217 1 283 28 61 95 127
157 157 102 47 280 67 439 47 l57 -7 0 33 c0 92 -52 167 -130 188 -48 13 -119
6 -162 -16 -30 -15 -64 -59 -69 -89 -4 -18 -14 -20 -133 -23 l-129 -4 7 44
c17 110 107 227 214 279 97 48 252 62 370 34z m4524 4 c73 -16 152 -56 200
-102 50 -48 106 -163 89 -180 -7 -7 -60 -15 -124 -19 l-112 -7 -34 40 c-18 22
-46 46 -62 54 -35 19 -129 19 -173 1 -77 -32 -100 -114 -46 -160 33 -27 37
-28 226 -75 193 -46 268 -89 318 -180 24 -45 29 -65 30 -135 1 -98 -14 -156
-59 -218 -66 -91 -177 -145 -319 -155 -247 -17 -441 96 -491 287 -17 64 -15
65 136 74 l116 7 6 -30 c8 -41 61 -97 103 -111 82 -27 182 -6 225 48 15 20 19
38 17 80 -4 76 -18 85 -221 126 -202 41 -273 74 -324 150 -43 63 -56 116 -51
197 11 146 114 259 278 305 57 16 203 17 272 3z m-3298 -29 c91 -29 176 -96
229 -183 10 -16 30 -63 44 -105 25 -72 27 -88 27 -247 0 -158 -2 -175 -26
-243 -49 -135 -128 -230 -236 -280 -51 -24 -68 -27 -167 -27 -136 1 -199 23
-280 97 l-55 50 0 -276 0 -277 -137 3 -138 3 -3 748 -2 747 119 0 c66 0 126
-3 135 -6 12 -5 16 -21 17 -68 0 -33 3 -56 5 -49 10 24 117 97 167 114 74 26
215 25 301 -1z"/>
<path d="M5240 3023 l0 -240 132 -2 c198 -2 283 32 329 134 40 87 18 216 -47
277 -55 51 -96 61 -261 66 l-153 4 0 -239z"/>
<path d="M6521 2926 c-56 -20 -108 -72 -143 -143 -31 -63 -33 -75 -33 -168 0
-125 19 -186 81 -254 58 -64 112 -86 196 -78 108 10 180 82 214 217 66 259
-112 500 -315 426z"/>
<path d="M2991 2524 c-96 -26 -131 -64 -131 -145 0 -94 57 -134 179 -127 148
9 227 84 239 225 l5 63 -119 -1 c-70 0 -141 -6 -173 -15z"/>
<path d="M4166 2915 c-53 -19 -85 -44 -118 -91 -75 -107 -76 -325 -2 -437 96
-146 320 -137 408 16 53 93 61 272 16 375 -52 120 -184 180 -304 137z"/>
</g>
</svg>
